<svg width="146" height="146" xmlns="http://www.w3.org/2000/svg">
  <path id="svg_33" d="m145.89604,72.94244l-29.43458,10.47133l0,-20.9315l29.43458,10.46018zm-21.37199,-51.5816l-13.40977,28.22463l-14.79814,-14.80929l28.20791,-13.41534zm-51.57603,-21.36084l10.46575,29.44015l-20.93708,0l10.47133,-29.44015zm-51.5816,21.36084l28.21906,13.41534l-14.80371,14.80929l-13.41534,-28.22463zm-21.36642,51.5816l29.44015,-10.46018l0,20.9315l-29.44015,-10.47133zm21.36642,51.5816l13.41534,-28.21348l14.80371,14.80371l-28.21906,13.40977l0,0zm51.5816,21.37757l-10.47133,-29.44573l20.93708,0l-10.46575,29.44573zm51.57603,-21.37757l-28.21348,-13.40419l14.79814,-14.80371l13.41534,28.20791zm-88.04725,-51.5816l0,0c0,-20.13974 16.33148,-36.47122 36.4768,-36.47122c20.13974,0 36.4768,16.33148 36.4768,36.47122c0,20.14532 -16.33706,36.4768 -36.4768,36.4768c-20.15089,0 -36.4768,-16.33148 -36.4768,-36.4768l0,0z" stroke="black" stroke-width="5px" fill="none"/>
</svg>